<?xml version="1.0" encoding="UTF-8" standalone="no"?>
<!-- Created with Inkscape (http://www.inkscape.org/) -->

<svg
   xmlns:dc="http://purl.org/dc/elements/1.1/"
   xmlns:cc="http://creativecommons.org/ns#"
   xmlns:rdf="http://www.w3.org/1999/02/22-rdf-syntax-ns#"
   xmlns:svg="http://www.w3.org/2000/svg"
   xmlns="http://www.w3.org/2000/svg"
   xmlns:sodipodi="http://sodipodi.sourceforge.net/DTD/sodipodi-0.dtd"
   xmlns:inkscape="http://www.inkscape.org/namespaces/inkscape"
   width="133.85397mm"
   height="121.75873mm"
   viewBox="0 0 474.28573 431.42856"
   id="svg2"
   version="1.1"
   inkscape:version="0.91 r13725"
   sodipodi:docname="drawing.svg">
  <defs
     id="defs4" />
  <sodipodi:namedview
     id="base"
     pagecolor="#ffffff"
     bordercolor="#666666"
     borderopacity="1.0"
     inkscape:pageopacity="0.0"
     inkscape:pageshadow="2"
     inkscape:zoom="0.35"
     inkscape:cx="-179.90439"
     inkscape:cy="209.53318"
     inkscape:document-units="px"
     inkscape:current-layer="layer1"
     showgrid="false"
     fit-margin-top="0"
     fit-margin-left="0"
     fit-margin-right="0"
     fit-margin-bottom="0"
     inkscape:window-width="2560"
     inkscape:window-height="1315"
     inkscape:window-x="0"
     inkscape:window-y="1"
     inkscape:window-maximized="1" />
  <metadata
     id="metadata7">
    <rdf:RDF>
      <cc:Work
         rdf:about="">
        <dc:format>image/svg+xml</dc:format>
        <dc:type
           rdf:resource="http://purl.org/dc/dcmitype/StillImage" />
        <dc:title></dc:title>
      </cc:Work>
    </rdf:RDF>
  </metadata>
  <g
     inkscape:label="Layer 1"
     inkscape:groupmode="layer"
     id="layer1"
     transform="translate(-134.90439,-310.46683)">
    <rect
       style="fill:#d93183;fill-opacity:0.78846157"
       id="rect4136"
       width="474.28571"
       height="431.42856"
       x="134.90439"
       y="310.46683" />
    <g
       style="font-style:normal;font-weight:normal;font-size:40px;line-height:125%;font-family:sans-serif;letter-spacing:0px;word-spacing:0px;fill:#ffffff;fill-opacity:1;stroke:none;stroke-width:1px;stroke-linecap:butt;stroke-linejoin:miter;stroke-opacity:1"
       id="text4138"
       transform="matrix(4.0812435,0,0,7.7995934,-578.92578,-2910.7784)">
      <path
         d="m 212.83482,427.01624 0,3.84765 q -2.24609,-1.07422 -4.23828,-1.60156 -1.99219,-0.52734 -3.84765,-0.52734 -3.22266,0 -4.98047,1.25 -1.73828,1.25 -1.73828,3.55468 0,1.9336 1.15234,2.92969 1.17187,0.97656 4.41406,1.58203 l 2.38281,0.48828 q 4.41407,0.83985 6.50391,2.96875 2.10938,2.10938 2.10938,5.66407 0,4.23828 -2.85157,6.42578 -2.83203,2.1875 -8.32031,2.1875 -2.07031,0 -4.41406,-0.46875 -2.32422,-0.46875 -4.82422,-1.38672 l 0,-4.0625 q 2.40234,1.34765 4.70703,2.03125 2.30469,0.68359 4.53125,0.68359 3.37891,0 5.21484,-1.32812 1.83594,-1.32813 1.83594,-3.78907 0,-2.14843 -1.32812,-3.35937 -1.3086,-1.21094 -4.31641,-1.81641 l -2.40234,-0.46875 q -4.41407,-0.8789 -6.38672,-2.7539 -1.97266,-1.875 -1.97266,-5.21485 0,-3.86718 2.71485,-6.09375 2.73437,-2.22656 7.51953,-2.22656 2.05078,0 4.17968,0.37109 2.12891,0.3711 4.35547,1.11329 z"
         id="path4143"
         inkscape:connector-curvature="0"
         style="fill:#ffffff" />
      <path
         d="m 228.34264,455.21936 -11.13282,-29.16016 4.1211,0 9.23828,24.55079 9.25781,-24.55079 4.10156,0 -11.11328,29.16016 -4.47265,0 z"
         id="path4145"
         inkscape:connector-curvature="0"
         style="fill:#ffffff" />
      <path
         d="m 268.04967,451.0592 0,-7.83203 -6.44532,0 0,-3.24218 10.35157,0 0,12.51953 q -2.28516,1.62109 -5.03907,2.46093 -2.7539,0.82032 -5.8789,0.82032 -6.83594,0 -10.70313,-3.98438 -3.84765,-4.0039 -3.84765,-11.13281 0,-7.14844 3.84765,-11.13281 3.86719,-4.00391 10.70313,-4.00391 2.85156,0 5.41015,0.70313 2.57813,0.70312 4.7461,2.07031 l 0,4.19922 q -2.1875,-1.85547 -4.64844,-2.79297 -2.46094,-0.9375 -5.17578,-0.9375 -5.35156,0 -8.04688,2.98828 -2.67578,2.98828 -2.67578,8.90625 0,5.89844 2.67578,8.88672 2.69532,2.98828 8.04688,2.98828 2.08984,0 3.73047,-0.35156 1.64062,-0.3711 2.94922,-1.13282 z"
         id="path4147"
         inkscape:connector-curvature="0"
         style="fill:#ffffff" />
    </g>
  </g>
</svg>
